<?xml version="1.0" encoding="utf-8"?>
<!-- Generator: Adobe Illustrator 23.0.3, SVG Export Plug-In . SVG Version: 6.00 Build 0)  -->
<svg version="1.1" id="Layer_1" xmlns="http://www.w3.org/2000/svg" xmlns:xlink="http://www.w3.org/1999/xlink" x="0px" y="0px"
	 viewBox="0 0 220.3 41.5" style="enable-background:new 0 0 220.3 41.5;" xml:space="preserve">
<style type="text/css">
	.st0{fill-rule:evenodd;clip-rule:evenodd;fill:#1C7285;}
	.st1{filter:url(#Adobe_OpacityMaskFilter);}
	.st2{fill-rule:evenodd;clip-rule:evenodd;fill:#FFFFFF;}
	.st3{mask:url(#mask-2_1_);fill-rule:evenodd;clip-rule:evenodd;fill:#1C7285;}
</style>
<title>Flare</title>
<desc>Created with Sketch.</desc>
<g id="Desktop">
	<g id="Flare-Hover-3up-" transform="translate(-88.000000, -76.000000)">
		<g id="Group" transform="translate(88.000000, 76.000000)">
			<g>
				<g>
					<path id="Fill-2" class="st0" d="M171.7,35.4c-0.2,0-0.4,0-0.6,0c-1.8,0-2.4,0.8-2.4,2c0,0.9,0.4,1.4,1.3,1.4
						c0.7,0,1.3-0.5,1.7-1.2L171.7,35.4z M169.1,31.7c0,0,1.6-0.1,1.6-0.1c1,0,1.7,0.4,2,1.2c0.2,0.4,0.2,1,0.2,1.7l0,5.1l-1.1,0
						c0,0,0-0.9,0-0.9c-0.7,0.7-1.1,0.9-1.9,0.9c-1.8,0-2.3-1.2-2.3-2.2c0-1.7,1.3-2.9,3.8-2.9c0.3,0,0.5,0,0.5,0v-0.4
						c0-0.7,0-1-0.2-1.2c-0.2-0.3-0.5-0.4-1-0.4c0,0-2.1,0.1-2.1,0.1L169.1,31.7z"/>
					<path id="Fill-4" class="st0" d="M161.3,34.5v3.9h2.1c1.3,0,1.7-0.2,2.1-1.1c0.1-0.3,0.2-0.6,0.2-0.9c0-0.9-0.5-1.7-1.3-1.9
						c-0.3-0.1-0.7-0.1-1.2-0.1H161.3z M161.3,30v3.5h1.8c1.1,0,1.5-0.2,1.8-0.9c0.1-0.2,0.2-0.5,0.2-0.8c0-0.8-0.5-1.5-1.2-1.7
						c-0.3-0.1-0.6-0.1-1.1-0.1H161.3z M160.1,28.9h1.5c2.1,0,2.6,0,3.1,0.2c1.1,0.4,1.8,1.3,1.8,2.4c0,1.1-0.7,1.9-1.9,2.3
						c0.8,0.2,1,0.3,1.4,0.6c0.6,0.4,0.9,1.3,0.9,2.1c0,1.2-0.7,2.3-1.8,2.7c-0.6,0.2-0.8,0.2-2.4,0.2h-2.7V28.9z"/>
					<path id="Fill-6" class="st0" d="M174.9,32.8c0.8-0.8,1.6-1.2,2.4-1.2c0.8,0,1.6,0.4,1.9,1.1c0.1,0.3,0.2,0.6,0.2,0.9v6h-1.2
						v-5.4c0-0.8,0-1-0.3-1.3c-0.2-0.2-0.5-0.3-0.8-0.3c-0.6,0-1.5,0.5-2.1,1.1v5.9h-1.2l0-8l1.1,0L174.9,32.8z"/>
					<path id="Fill-8" class="st0" d="M134.8,28.9l1.3,5.2c0.2,0.7,0.3,1.1,0.3,1.6c0.1-0.5,0.2-1.1,0.4-1.7l1.4-5.1h2.6l0.9,10.5
						h-2l-0.4-5.7c0-0.3,0-0.8,0-0.8l-0.2,0c0,0-0.1,0.4-0.2,0.7l-1.6,5.8h-1.7l-1.4-5.6c-0.1-0.3-0.2-0.9-0.2-0.9l-0.2,0
						c0,0,0,0.6,0,0.9l-0.4,5.6h-2l1-10.5H134.8z"/>
					<path id="Fill-10" class="st0" d="M146.6,34.6L146.6,34.6c0-0.7-0.1-0.9-0.2-1.2c-0.2-0.3-0.5-0.4-0.9-0.4
						c-0.7,0-1.2,0.6-1.2,1.6v0H146.6z M146.6,39.5c0,0-0.2,0-0.8,0c-2.1,0-3.5-1.5-3.5-3.9c0-1.4,0.3-2.3,0.9-3
						c0.6-0.7,1.4-1,2.4-1c0.9,0,1.7,0.3,2.2,0.8c0.7,0.7,1,1.7,1,3.3v0.3h-4.3V36c0,1.2,0.5,2,1.6,2c0.5,0,1.7,0,1.7,0L146.6,39.5z
						"/>
					<path id="Fill-12" class="st0" d="M157,35.9c-1.4,0-1.9,0.3-1.9,1.2c0,0.6,0.4,0.9,0.9,0.9c0.4,0,0.8-0.2,1.1-0.6l0-1.5
						L157,35.9z M154.2,33l1-1.5c0,0,1.4,0,1.4,0c1.3,0,2.1,0.5,2.4,1.3c0.1,0.3,0.1,0.5,0.1,1.4l0,5.3l-1.9,0c0,0,0-0.4,0-0.4
						c-0.4,0.3-0.9,0.4-1.5,0.4c-1.7,0-2.6-0.9-2.6-2.4c0-1.8,1.2-2.6,3.6-2.6c0.1,0,0.3,0,0.4,0l0,0c0.2-1.4-0.4-1.6-1.1-1.6
						L154.2,33z"/>
					<path id="Fill-14" class="st0" d="M149.6,32.9H149v-1.5l0.6,0v-1.2l1.9-0.5l0,1.7l2.5,0l-1,1.5l-1.5,0l0,3.4
						c0,1.5,0.2,1.6,0.9,1.6c0,0,0,1.5,0,1.5s-0.6,0-0.9,0c-1,0-1.9-0.5-1.9-2.5L149.6,32.9z"/>
					<path id="Fill-16" class="st0" d="M196.7,33.4L196.7,33.4c-1,1.4-2.5,2.1-4.1,2c0.3,0.7,0.8,1.3,1.5,1.8
						c0.7,0.5,1.4,0.7,2.2,0.8C197.3,36.6,197.4,34.8,196.7,33.4L196.7,33.4z M192.6,35.4c-0.7-1.4-0.6-3.1,0.4-4.5
						c-1.5-0.1-3.1,0.6-4,1.9l0,0c0.3,0.7,0.8,1.3,1.5,1.8C191.1,35.1,191.9,35.3,192.6,35.4L192.6,35.4z M193,30.8L193,30.8
						c0.8,0.1,1.5,0.3,2.2,0.8c0.7,0.5,1.2,1.1,1.5,1.8c0.9-1.4,1-3.1,0.3-4.5C195.5,28.8,193.9,29.5,193,30.8L193,30.8z
						 M199.8,36.6c0,1.7-1.3,3-3,3h-6.2c-1.6,0-3-1.3-3-3v-6.2c0-1.7,1.3-3,3-3h6.2c1.6,0,3,1.3,3,3V36.6z"/>
					<path id="Fill-18" class="st0" d="M201.1,38.6h0.1c0.1,0,0.2,0,0.2-0.2c0-0.1-0.1-0.2-0.2-0.2c-0.1,0-0.1,0-0.1,0V38.6z
						 M201.1,39.1h-0.2v-1c0.1,0,0.2,0,0.4,0c0.2,0,0.3,0,0.3,0.1c0.1,0,0.1,0.1,0.1,0.2c0,0.1-0.1,0.2-0.2,0.2v0
						c0.1,0,0.1,0.1,0.2,0.3c0,0.2,0.1,0.2,0.1,0.2h-0.2c0,0,0-0.1-0.1-0.2c0-0.1-0.1-0.2-0.2-0.2h-0.1V39.1z M200.5,38.6
						c0,0.5,0.3,0.8,0.8,0.8c0.4,0,0.8-0.4,0.8-0.8c0-0.5-0.3-0.8-0.8-0.8C200.8,37.8,200.5,38.2,200.5,38.6L200.5,38.6z
						 M202.3,38.6c0,0.6-0.5,1-1,1c-0.6,0-1-0.5-1-1c0-0.6,0.5-1,1.1-1C201.8,37.6,202.3,38,202.3,38.6L202.3,38.6z"/>
					<path id="Fill-20" class="st0" d="M123.1,37.7c0,0.7,0.4,1.3,1.1,1.3c0.7,0,1.1-0.6,1.1-1.3c0-0.7-0.4-1.2-1.1-1.2
						C123.5,36.4,123.1,37,123.1,37.7L123.1,37.7z M122.6,33.4h0.6v3h0c0.3-0.4,0.7-0.6,1.1-0.6c1,0,1.6,0.8,1.6,1.8
						c0,0.9-0.6,1.8-1.6,1.8c-0.5,0-0.9-0.2-1.1-0.6h0v0.5h-0.6V33.4z"/>
					<polygon id="Fill-22" class="st0" points="129.1,36 128,38.4 126.8,36 126.1,36 127.7,39.1 126.6,41.3 127.2,41.3 129.7,36 
											"/>
					<g id="Group-26" transform="translate(0.000000, 12.160920)">
						<g id="Clip-25">
						</g>
						<defs>
							<filter id="Adobe_OpacityMaskFilter" filterUnits="userSpaceOnUse" x="-0.8" y="-1.1" width="19" height="4.7">
								<feColorMatrix  type="matrix" values="1 0 0 0 0  0 1 0 0 0  0 0 1 0 0  0 0 0 1 0"/>
							</filter>
						</defs>
						<mask maskUnits="userSpaceOnUse" x="-0.8" y="-1.1" width="19" height="4.7" id="mask-2_1_">
							<g class="st1">
								<polygon id="path-1_1_" class="st2" points="-0.8,-1.1 18.2,-1.1 18.2,3.6 -0.8,3.6 								"/>
							</g>
						</mask>
						<path id="Fill-24" class="st3" d="M18.2-0.5c-2.7,0-6.2,0.7-9,1.6C9.9,0.7,11,0,11.4-0.2l-0.1-1C7.7-0.5,4.1,0.2-0.8,2.6
							l0.5,1C3.3,1.8,6.2,1,8.9,0.4C8,0.9,6.7,1.9,6.2,2.3l0.5,1c2.8-1.4,7.6-2.6,11.5-2.7L18.2-0.5z"/>
					</g>
					<path id="Fill-27" class="st0" d="M8,11.3l0.8-1.7L9.6,11c0.6-0.1,1.1-0.2,1.7-0.3l0.3-0.1l0.1,1.5l-0.2,0.1c0,0-0.1,0-0.1,0.1
						c0.8-0.2,1.5-0.4,2.3-0.5L8.8,2.6l-5.1,9.9C5.2,12,6.7,11.6,8,11.3"/>
					<path id="Fill-29" class="st0" d="M5.8,14.4L6,14.2C6.2,14,6.6,13.7,7,13.4l0.1-0.1c-1.4,0.4-2.9,0.9-4.6,1.5L1.4,17h3.9
						l0.9-1.8L5.8,14.4z"/>
					<path id="Fill-31" class="st0" d="M11.2,14.2l1.4,2.8h3.8l-1.8-3.5C13.4,13.6,12.3,13.9,11.2,14.2"/>
					<polygon id="Fill-33" class="st0" points="97.9,14.6 95.7,20.2 94.6,20.2 102.5,0.4 103.6,0.4 111.4,20.2 110.3,20.2 
						108.1,14.6 100,14.6 100.5,13.6 107.7,13.6 103,1.8 98.4,13.6 					"/>
					<polygon id="Fill-35" class="st0" points="24.7,20.3 26.4,20.3 26.4,11.1 34.4,11.1 34.4,9.4 26.4,9.4 26.4,2 36.4,2 36.4,0.3 
						24.7,0.3 					"/>
					<polygon id="Fill-37" class="st0" points="40.2,0.3 38.5,0.3 38.5,20.3 48.2,20.3 48.2,18.5 40.2,18.5 					"/>
					<polygon id="Fill-39" class="st0" points="57,0.3 49.3,20.3 51.1,20.3 57.8,2.9 61.8,13.1 55.2,13.1 54.4,14.8 62.4,14.8 
						64.6,20.3 66.4,20.3 58.6,0.3 					"/>
					<path id="Fill-41" class="st0" d="M69,2h3c3,0,5.4,2.4,5.4,5.5S75,12.9,72,12.9h-3V2z M73.8,14.4c3.1-0.8,5.3-3.7,5.3-6.9
						c0-4-3.2-7.2-7.1-7.2h-4.7v20H69v-5.7h1.2c0.9,0,1.7,0.4,2.4,1.1l4.5,4.6h2.4L73.8,14.4L73.8,14.4z"/>
					<polygon id="Fill-43" class="st0" points="93.1,2 93.1,0.3 81.4,0.3 81.4,20.3 93.1,20.3 93.1,18.5 83.1,18.5 83.1,11.1 
						91.1,11.1 91.1,9.4 83.1,9.4 83.1,2 					"/>
					<path id="Fill-45" class="st0" d="M120.3,19.2c2.2,0,4.1-0.8,5.6-2.1v1.3c-1.6,1.1-3.5,1.8-5.6,1.8c-5.4,0-9.8-4.4-9.8-9.9
						c0-5.5,4.4-9.9,9.8-9.9c2.1,0,4,0.7,5.6,1.8v1.3c-1.5-1.3-3.4-2.1-5.6-2.1c-4.8,0-8.7,4-8.7,8.9
						C111.6,15.2,115.5,19.2,120.3,19.2"/>
					<path id="Fill-47" class="st0" d="M137.2,19.2c2.2,0,4.1-0.8,5.6-2.1v1.3c-1.6,1.1-3.5,1.8-5.6,1.8c-5.4,0-9.8-4.4-9.8-9.9
						c0-5.5,4.4-9.9,9.8-9.9c2.1,0,4,0.7,5.6,1.8v1.3c-1.5-1.3-3.4-2.1-5.6-2.1c-4.8,0-8.7,4-8.7,8.9
						C128.5,15.2,132.4,19.2,137.2,19.2"/>
					<path id="Fill-49" class="st0" d="M153.9,19.2c4.8,0,8.7-4,8.7-8.9c0-4.9-3.9-8.9-8.7-8.9c-4.8,0-8.7,4-8.7,8.9
						C145.2,15.2,149.1,19.2,153.9,19.2 M153.9,0.4c5.4,0,9.8,4.4,9.8,9.9c0,5.5-4.4,9.9-9.8,9.9c-5.4,0-9.8-4.4-9.8-9.9
						C144.1,4.8,148.5,0.4,153.9,0.4"/>
					<path id="Fill-51" class="st0" d="M180.2,13.8V0.4l1,0v14.1c0,0,0,0.4,0,0.6c-0.1,0.8-0.3,2.1-1.3,3.3
						c-1.3,1.5-3.4,2.3-6.2,2.3c-2.8,0-4.9-0.8-6.2-2.3c-0.9-1-1.2-2.1-1.3-2.9c-0.1-0.5-0.1-1.3-0.1-1.3V0.4h1l0,13.4
						c0,0,0,1,0,1.3c0.1,0.6,0.3,1.7,1.1,2.6c1.1,1.3,3,2,5.5,2c2.5,0,4.4-0.7,5.5-2c0.9-1.1,1-2.3,1.1-2.8
						C180.2,14.8,180.2,13.8,180.2,13.8"/>
					<polygon id="Fill-53" class="st0" points="185,0.4 186,0.4 198.9,18.4 198.9,0.4 199.9,0.4 199.9,20.2 198.9,20.2 186,2.2 
						186,20.2 185,20.2 					"/>
					<polygon id="Fill-55" class="st0" points="214.6,1.4 209,1.4 209,20.2 207.9,20.2 207.9,1.4 202.3,1.4 202.3,0.4 214.6,0.4 
											"/>
					<polygon id="Fill-58" class="st0" points="216.2,0.7 215.7,0.7 215.7,0.4 217.1,0.4 217.1,0.7 216.6,0.7 216.6,2.1 216.2,2.1 
											"/>
					<polygon id="Fill-59" class="st0" points="218.7,0.4 218.2,1.1 217.8,0.4 217.4,0.4 217.4,2.1 217.8,2.1 217.8,1 218.2,1.7 
						218.2,1.7 218.7,1 218.7,2.1 219.1,2.1 219.1,0.4 					"/>
					<polygon id="Fill-1" class="st0" points="180.3,29 180.3,39.6 181.5,39.6 181.5,34.9 185,39.6 186.6,39.6 183,34.8 185.2,31.6 
						183.7,31.6 181.5,34.8 181.5,27.3 					"/>
				</g>
			</g>
		</g>
	</g>
</g>
</svg>
