<?xml version="1.0" encoding="UTF-8"?>
<svg width="155px" height="24px" viewBox="0 0 155 24" version="1.1" xmlns="http://www.w3.org/2000/svg" xmlns:xlink="http://www.w3.org/1999/xlink">
    <title>PorteLogo-PorteColor-HomepageCard</title>
    <defs>
        <linearGradient x1="0.974545958%" y1="48.8246135%" x2="97.4281973%" y2="51.1370923%" id="linearGradient-1">
            <stop stop-color="#B89876" offset="0%"></stop>
            <stop stop-color="#D7B592" offset="51.8605491%"></stop>
            <stop stop-color="#BD9C78" offset="100%"></stop>
        </linearGradient>
    </defs>
    <g id="Desktop" stroke="none" stroke-width="1" fill="none" fill-rule="evenodd">
        <path d="M45.4810202,0.000691144708 L45.848221,0.00338058422 C54.2507919,0.127014625 59.6713615,4.50772478 59.6713615,12.0003456 L59.6713615,12.0003456 L59.6679349,12.3254712 C59.5104839,19.7572181 53.939073,24 45.4512181,24 L45.4512181,24 L45.0840175,23.9959574 C36.6814527,23.8420881 31.2613101,19.491821 31.2912028,11.9678618 C31.2912028,4.3625054 36.8306328,0.000691144708 45.3864309,0 L45.3864309,0 L45.4810202,0.000691144708 Z M84.6284281,0.727272727 L84.9368487,0.731693229 C90.3494386,0.856003296 93.8348344,3.42623022 93.8042045,7.89331121 L93.8042045,7.89331121 L93.7997732,8.16413579 C93.6876879,11.5653809 91.4560164,13.8539039 87.8672567,14.672425 L87.8672567,14.672425 L88.1059837,14.988441 C89.2649658,16.5192934 91.022186,18.7925867 92.0891315,19.9976399 L92.0891315,19.9976399 L92.2628085,20.1903951 C93.8784326,21.9500645 95.3286385,22.6123129 95.3286385,22.6123129 L95.3286385,22.6123129 C95.252895,22.7003971 94.087526,24 91.1691793,24 L91.1691793,24 L90.8589632,23.99449 C87.9805788,23.8917852 85.5779271,22.3574311 83.7077976,19.7396901 L83.7077976,19.7396901 L83.4821521,19.4187521 C82.4431604,17.9302282 81.601677,16.5784487 81.0089999,15.7049139 L81.0089999,15.7049139 L75.3576714,15.7049139 L75.3576714,17.8671401 L75.3590377,18.1497274 C75.3869725,21.0500939 75.8339298,23.3220197 75.8339298,23.3220197 L75.8339298,23.3220197 L68.4037559,23.3220197 C68.4330569,23.1701168 68.8800143,20.806341 68.8800143,17.8671401 L68.8800143,17.8671401 L68.9119005,6.18284196 L68.9105343,5.90025269 C68.8825995,2.99984576 68.4356421,0.727272727 68.4356421,0.727272727 L68.4356421,0.727272727 L84.6284281,0.727272727 Z M152.334958,0.727272727 L153.603767,6.43284457 L153.571827,6.42828913 C153.224264,6.37913701 150.102767,5.94818386 147.291576,5.91766257 L147.291576,5.91766257 L137.236668,5.91766257 L137.204812,10.3008421 L149.670594,10.3332132 L148.782698,15.3293766 C148.633421,15.2996301 146.310507,14.8458769 143.422114,14.8458769 L143.422114,14.8458769 L137.204812,14.8458769 L137.204812,18.1015793 L148.687809,18.1332616 L148.941619,18.1321001 C151.827556,18.1060277 155,17.6497619 155,17.6497619 L155,17.6497619 L152.779583,24 C152.715533,23.9753268 150.874003,23.2905916 143.643749,23.2905916 L143.643749,23.2905916 L130.258216,23.2905916 C130.287489,23.1389 130.73402,20.7784121 130.73402,17.8432995 L130.73402,17.8432995 L130.765198,6.17525357 L130.763833,5.89305737 C130.735924,2.99668474 130.289394,0.727272727 130.289394,0.727272727 L130.289394,0.727272727 L152.334958,0.727272727 Z M14.7829516,1.45454545 L15.1103946,1.45893175 C21.0719982,1.58894464 24.741784,4.44270016 24.741784,9.34065934 L24.741784,9.34065934 L24.737978,9.60579401 C24.598612,14.4287137 20.642392,17.1641692 14.5972561,17.1641692 L14.5972561,17.1641692 L6.77293121,17.1641692 L6.77293121,18.005328 L6.77434311,18.2870485 C6.80134065,20.9911407 7.20679355,23.1220779 7.23617883,23.2727273 L7.23617883,23.2727273 L0,23.2727273 C0.0294048953,23.1212942 0.463247612,20.8405573 0.463247612,18.005328 L0.463247612,18.005328 L0.463247612,6.72261072 L0.461925426,6.44099266 C0.435772282,3.64444712 0.0303985594,1.45454545 0.0303985594,1.45454545 L0.0303985594,1.45454545 L14.7829516,1.45454545 Z M101.13039,0.000596489501 C101.171092,0.023131308 102.412991,0.676641044 109.553263,0.676641044 L113.493913,0.676044554 C120.429941,0.653509736 121.548732,0 121.548732,0 L121.548732,0 L123.70892,6.35808067 C123.528669,6.32922091 120.645105,5.87456857 117.790486,5.87456857 L117.790486,5.87456857 L114.533474,5.87456857 L114.533474,17.8175244 L114.534822,18.1001284 C114.562376,21.0006668 115.003255,23.2727273 115.003255,23.2727273 L115.003255,23.2727273 L107.674809,23.2727273 C107.703712,23.1208154 108.14459,20.7568995 108.14459,17.8175244 L108.14459,17.8175244 L108.14459,5.87456857 L104.887578,5.87456857 L104.619893,5.87587365 C101.765455,5.90342834 98.9671362,6.35808067 98.9671362,6.35808067 L98.9671362,6.35808067 L101.129332,0 Z M45.4810202,5.20708423 L45.2063762,5.21015101 C40.8433749,5.30820869 37.9922674,7.75395248 37.9922674,12.0003456 C37.9922674,16.3020302 40.9031564,18.7922246 45.4512181,18.7922246 L45.4512181,18.7922246 L45.7276131,18.7891587 C50.1174616,18.6911284 52.939971,16.2460616 52.939971,12.0003456 L52.939971,12.0003456 L52.9363075,11.7372955 C52.8192599,7.56616694 49.9064358,5.20708423 45.4810202,5.20708423 L45.4810202,5.20708423 Z M14.6593749,6.47352647 L6.77293121,6.47352647 L6.77293121,12.1458541 L14.6593749,12.1458541 L14.8803307,12.1423017 C16.914397,12.0760492 18.1538875,11.0847773 18.1538875,9.30935731 L18.1538875,9.30935731 L18.1491649,9.12516172 C18.0611973,7.43213663 16.749629,6.47352647 14.6593749,6.47352647 L14.6593749,6.47352647 Z M83.9310013,5.92489217 L75.3888792,5.92489217 L75.3888792,10.54109 L83.9310013,10.54109 L84.1465796,10.5376445 C85.988466,10.4780231 87.1365867,9.64723188 87.1365867,8.24850946 L87.1365867,8.24850946 L87.1315174,8.08618587 C87.0438725,6.70259974 85.8255821,5.92489217 83.9310013,5.92489217 L83.9310013,5.92489217 Z" id="PorteLogo-PorteColor-HomepageCard" fill="url(#linearGradient-1)"></path>
    </g>
</svg>