<?xml version="1.0" encoding="utf-8"?>
<!-- Generator: Adobe Illustrator 23.0.3, SVG Export Plug-In . SVG Version: 6.00 Build 0)  -->
<svg version="1.1" id="Layer_1" xmlns="http://www.w3.org/2000/svg" xmlns:xlink="http://www.w3.org/1999/xlink" x="0px" y="0px"
	 viewBox="0 0 190 25" style="enable-background:new 0 0 190 25;" xml:space="preserve">
<style type="text/css">
	.st0{fill-rule:evenodd;clip-rule:evenodd;fill:#0D573C;}
</style>
<title>531052A4-B7C1-4A94-9DBF-5779A533C2BF</title>
<desc>Created with sketchtool.</desc>
<g id="Desktop_1_">
	<g id="Elite-Hover-3up" transform="translate(-113.000000, -84.000000)">
		<g id="Group" transform="translate(113.000000, 84.000000)">
			<g id="Group-2">
				<g>
					<g transform="translate(0.677083, 0.683544)">
						<g id="Group-3_1_">
							<path id="Combined-Shape_1_" class="st0" d="M6,20.4c2.9-1.1,5.5-1.9,7.9-2.6l-0.3,0.7c-0.6,0.5-1.2,0.9-1.6,1.3L11.8,20
								l0.6,1.1l-1.6,3.3H3.9L6,20.4z M7.8,16.8l9.1-17.3l8.6,16.1c-1.7,0.3-3.5,0.7-5.2,1.2c0.5-0.3,1-0.6,1.3-0.8l0.2-0.1
								l-0.2-2.4l-0.4,0.1c-1,0.2-1.9,0.3-2.9,0.5l-1.3-2.6l-1.5,3.1C13,15.2,10.5,15.9,7.8,16.8z M26.8,18.1l3.3,6.2h-6.6l-2.5-5
								C22.8,18.9,24.8,18.4,26.8,18.1z"/>
							<path id="Fill-81_1_" class="st0" d="M33.2,15.2c-4.7,0-10.8,1.2-15.7,2.8c1.3-0.8,3.1-1.9,3.8-2.3l-0.2-1.7
								c-6.3,1-12.6,2.3-21.1,6.5l0.8,1.7c6.2-3.1,11.3-4.5,16-5.6c-1.5,1-3.7,2.6-4.7,3.4l0.9,1.7c4.9-2.4,13.3-4.5,20-4.6
								L33.2,15.2z"/>
						</g>
						<polygon id="Fill-83_1_" class="st0" points="47.9,4.2 47.9,11.9 60.8,11.9 60.8,13.2 47.9,13.2 47.9,22.9 61,22.9 61,24.2 
							45.9,24.2 45.9,2.9 61,2.9 61,4.2 						"/>
						<polygon id="Fill-85_1_" class="st0" points="83,22.9 91,22.9 91,24.2 80.9,24.2 80.9,2.9 83,2.9 						"/>
						<polygon id="Fill-87_1_" class="st0" points="109,24.2 111,24.2 111,2.9 109,2.9 						"/>
						<polygon id="Fill-89_1_" class="st0" points="139.1,24.2 137.1,24.2 137.1,4.2 129,4.2 129,2.9 147.4,2.9 147.4,4.2 
							139.1,4.2 						"/>
						<polygon id="Fill-90_1_" class="st0" points="167.4,4.2 167.4,11.9 180.3,11.9 180.3,13.2 167.4,13.2 167.4,22.9 180.5,22.9 
							180.5,24.2 165.4,24.2 165.4,2.9 180.5,2.9 180.5,4.2 						"/>
						<path id="Fill-91_1_" class="st0" d="M186.9,5c0.4,0,0.9,0.1,0.9-0.4c0-0.3-0.4-0.4-0.7-0.4h-0.8V5H186.9z M188.1,6.5h-0.4
							L187,5.3h-0.6v1.2h-0.3V3.9h1.1c0.7,0,0.9,0.3,0.9,0.7c0,0.5-0.3,0.7-0.8,0.7L188.1,6.5z M189,5.1c0-1.1-0.9-2.1-2-2.1
							c-1.1,0-2.1,0.9-2.1,2.1c0,1.2,0.9,2.1,2.1,2.1C188.1,7.2,189,6.3,189,5.1L189,5.1z M184.6,5.1c0-1.3,1-2.3,2.3-2.3
							c1.3,0,2.3,1.1,2.3,2.3c0,1.3-1,2.4-2.3,2.4C185.7,7.5,184.6,6.4,184.6,5.1L184.6,5.1z"/>
					</g>
				</g>
			</g>
		</g>
	</g>
</g>
</svg>
