<?xml version="1.0" encoding="UTF-8"?>
<svg width="240px" height="39px" viewBox="0 0 240 39" version="1.1" xmlns="http://www.w3.org/2000/svg" xmlns:xlink="http://www.w3.org/1999/xlink">
    <!-- Generator: Sketch 55.2 (78181) - https://sketchapp.com -->
    <title>Ace</title>
    <desc>Created with Sketch.</desc>
    <g id="Desktop" stroke="none" stroke-width="1" fill="none" fill-rule="evenodd">
        <g id="Ace-Hover-3up" transform="translate(-90.000000, -78.000000)">
            <g id="Logos-/-ACE-Cash-Express-/-Color-/-ACE-Logo-Color-Horizontal-ColorWhite" transform="translate(90.000000, 78.000000)">
                <g id="ACE-Cash-Express-/-Color-/-ACE-Logo-Color-Horizontal-ColorWhite">
                    <path d="M61.7519495,24.2713714 L60.1351074,20.2802026 L60.1098442,20.2802026 L58.4687495,24.2713714 L61.7519495,24.2713714 Z M59.6450021,18.7576831 L60.7111074,18.7576831 L64.4227705,27.4521506 L63.0504758,27.4521506 L62.1804126,25.3025922 L58.0524126,25.3025922 L57.1954863,27.4521506 L55.8231916,27.4521506 L59.6450021,18.7576831 Z" id="Fill-64" fill="#1A1919"></path>
                    <path d="M75.8755705,20.6363688 C75.6310232,20.3172779 75.3197811,20.0711221 74.9448758,19.8999273 C74.56896,19.7277195 74.1809179,19.6416156 73.7807495,19.6416156 C73.2906442,19.6416156 72.8480337,19.7337974 72.4519074,19.918161 C72.0557811,20.1025247 71.7172547,20.3537455 71.4353179,20.6738494 C71.1533811,20.9929403 70.9351074,21.3667325 70.7804968,21.7972519 C70.6248758,22.2267584 70.5470653,22.6866545 70.5470653,23.1779532 C70.5470653,23.6368364 70.6208337,24.0703948 70.76736,24.4796416 C70.9148968,24.8899013 71.1271074,25.2495117 71.4050021,25.5604987 C71.6818863,25.8714857 72.0214232,26.1176416 72.4215916,26.2969403 C72.82176,26.4772519 73.2744758,26.5674078 73.7807495,26.5674078 C74.2789389,26.5674078 74.7164968,26.4650961 75.0914021,26.2604727 C75.4673179,26.0558494 75.7856337,25.769174 76.04736,25.4014597 L77.0396968,26.1500571 C76.9740126,26.240213 76.8598232,26.3688623 76.6961179,26.5370182 C76.5324126,26.705174 76.3171705,26.8723169 76.04736,27.0404727 C75.7775495,27.2076156 75.4531705,27.3555117 75.0732126,27.4821351 C74.6932547,27.6087584 74.2546863,27.6725766 73.7564968,27.6725766 C73.0703495,27.6725766 72.4519074,27.5419013 71.90016,27.2795377 C71.3494232,27.018187 70.8795284,26.6737714 70.4914863,26.2483169 C70.1044547,25.8228623 69.8083705,25.3416935 69.6032337,24.8058234 C69.3991074,24.2689403 69.2980547,23.7269922 69.2980547,23.1779532 C69.2980547,22.5073558 69.4082021,21.8874078 69.6284968,21.3181091 C69.8487916,20.7488104 70.1570021,20.2575117 70.5531284,19.844213 C70.9492547,19.4309143 71.4252126,19.1097974 71.9799916,18.8808623 C72.5357811,18.6519273 73.14816,18.5364468 73.8171284,18.5364468 C74.3890863,18.5364468 74.9509389,18.6468623 75.5016758,18.8676935 C76.0534232,19.0895377 76.5041179,19.4288883 76.8557811,19.8877714 L75.8755705,20.6363688 Z" id="Fill-65" fill="#1A1919"></path>
                    <polygon id="Fill-66" fill="#1A1919" points="82.7474526 18.7577844 88.3457684 18.7577844 88.3457684 19.8629532 83.9237053 19.8629532 83.9237053 22.453161 88.0395789 22.453161 88.0395789 23.5593429 83.9237053 23.5593429 83.9237053 26.3460701 88.5660632 26.3460701 88.5660632 27.4522519 82.7474526 27.4522519"></polygon>
                    <path d="M108.251419,20.6363688 C108.005861,20.3172779 107.695629,20.0711221 107.320724,19.8999273 C106.944808,19.7277195 106.556766,19.6416156 106.156598,19.6416156 C105.666493,19.6416156 105.223882,19.7337974 104.827756,19.918161 C104.431629,20.1025247 104.092093,20.3537455 103.810156,20.6738494 C103.529229,20.9929403 103.309945,21.3667325 103.155335,21.7972519 C103.000724,22.2267584 102.922914,22.6866545 102.922914,23.1779532 C102.922914,23.6368364 102.995672,24.0703948 103.143208,24.4796416 C103.289735,24.8899013 103.502956,25.2495117 103.77984,25.5604987 C104.057735,25.8714857 104.397272,26.1176416 104.79744,26.2969403 C105.197608,26.4772519 105.650324,26.5674078 106.156598,26.5674078 C106.654787,26.5674078 107.092345,26.4650961 107.467251,26.2604727 C107.843166,26.0558494 108.161482,25.769174 108.422198,25.4014597 L109.414535,26.1500571 C109.349861,26.240213 109.235672,26.3688623 109.071966,26.5370182 C108.908261,26.705174 108.693019,26.8723169 108.422198,27.0404727 C108.153398,27.2076156 107.829019,27.3555117 107.449061,27.4821351 C107.069103,27.6087584 106.630535,27.6725766 106.132345,27.6725766 C105.446198,27.6725766 104.827756,27.5419013 104.276008,27.2795377 C103.725272,27.018187 103.255377,26.6737714 102.867335,26.2483169 C102.480303,25.8228623 102.183208,25.3416935 101.979082,24.8058234 C101.774956,24.2689403 101.672893,23.7269922 101.672893,23.1779532 C101.672893,22.5073558 101.784051,21.8874078 102.004345,21.3181091 C102.22464,20.7488104 102.532851,20.2575117 102.928977,19.844213 C103.325103,19.4309143 103.800051,19.1097974 104.35584,18.8808623 C104.911629,18.6519273 105.524008,18.5364468 106.192977,18.5364468 C106.764935,18.5364468 107.325777,18.6468623 107.877524,18.8676935 C108.429272,19.0895377 108.879966,19.4288883 109.231629,19.8877714 L108.251419,20.6363688 Z" id="Fill-67" fill="#1A1919"></path>
                    <path d="M119.949878,24.2713714 L118.332025,20.2802026 L118.307773,20.2802026 L116.666678,24.2713714 L119.949878,24.2713714 Z M117.842931,18.7576831 L118.908025,18.7576831 L122.620699,27.4521506 L121.248404,27.4521506 L120.378341,25.3025922 L116.250341,25.3025922 L115.392404,27.4521506 L114.02112,27.4521506 L117.842931,18.7576831 Z" id="Fill-68" fill="#1A1919"></path>
                    <path d="M128.291672,25.6340416 C128.503882,25.9531325 128.775714,26.1891584 129.106156,26.3400935 C129.436598,26.4920416 129.778156,26.5670026 130.128808,26.5670026 C130.324851,26.5670026 130.524935,26.536613 130.729061,26.4758338 C130.933187,26.4140416 131.119124,26.3218597 131.286872,26.1992883 C131.453608,26.0767169 131.59104,25.9247688 131.697145,25.7444571 C131.803251,25.5651584 131.855798,25.3564831 131.855798,25.1184312 C131.855798,24.7831325 131.749693,24.5268468 131.537482,24.350587 C131.325272,24.1753403 131.061524,24.0274442 130.747251,23.9089247 C130.432977,23.7904052 130.090408,23.6759377 129.718535,23.5655221 C129.346661,23.4551065 129.004093,23.3011325 128.689819,23.104613 C128.375545,22.9080935 128.111798,22.6437039 127.899587,22.3124571 C127.687377,21.9812104 127.581272,21.5334701 127.581272,20.9682234 C127.581272,20.7149766 127.636851,20.4445091 127.745987,20.1578338 C127.857145,19.8711584 128.029945,19.6087948 128.267419,19.3717558 C128.503882,19.1337039 128.808051,18.9361714 129.179924,18.7761195 C129.551798,18.6160675 129.998451,18.5370545 130.520893,18.5370545 C130.994829,18.5370545 131.447545,18.6028987 131.881061,18.733574 C132.313566,18.8642494 132.692514,19.1306649 133.019924,19.5318078 L132.063966,20.4029766 C131.91744,20.1740416 131.709272,19.9896779 131.439461,19.8508987 C131.170661,19.7111065 130.863461,19.6412104 130.520893,19.6412104 C130.194493,19.6412104 129.922661,19.6847688 129.706408,19.7708727 C129.490156,19.8569766 129.316345,19.9673922 129.185987,20.1021195 C129.054619,20.2368468 128.963672,20.3827169 128.910114,20.5387169 C128.857566,20.6937039 128.830282,20.8375481 128.830282,20.9682234 C128.830282,21.3359377 128.936387,21.618561 129.149608,21.8150805 C129.361819,22.0116 129.624556,22.1716519 129.938829,22.2942234 C130.253103,22.4167948 130.596682,22.5272104 130.967545,22.6254701 C131.339419,22.7237299 131.681987,22.8614961 131.997272,23.0377558 C132.311545,23.2130026 132.574282,23.4510545 132.787503,23.7498857 C132.999714,24.0487169 133.105819,24.4599896 133.105819,24.9837039 C133.105819,25.4010545 133.025987,25.7778857 132.866324,26.1131844 C132.707672,26.4484831 132.49344,26.7311065 132.223629,26.9610545 C131.954829,27.1899896 131.635503,27.3652364 131.268682,27.4888208 C130.900851,27.6113922 130.508766,27.6721714 130.092429,27.6721714 C129.53664,27.6721714 129.010156,27.5749247 128.511966,27.3784052 C128.013777,27.1808727 127.617651,26.8790026 127.323587,26.4697558 L128.291672,25.6340416 Z" id="Fill-69" fill="#1A1919"></path>
                    <polygon id="Fill-70" fill="#1A1919" points="139.132699 18.7577844 140.308952 18.7577844 140.308952 22.3680701 144.803773 22.3680701 144.803773 18.7577844 145.980025 18.7577844 145.980025 27.4522519 144.803773 27.4522519 144.803773 23.473239 140.308952 23.473239 140.308952 27.4522519 139.132699 27.4522519"></polygon>
                    <polygon id="Fill-71" fill="#1A1919" points="160.189844 18.7577844 165.78816 18.7577844 165.78816 19.8629532 161.366097 19.8629532 161.366097 22.453161 165.48096 22.453161 165.48096 23.5593429 161.366097 23.5593429 161.366097 26.3460701 166.008455 26.3460701 166.008455 27.4522519 160.189844 27.4522519"></polygon>
                    <polygon id="Fill-72" fill="#1A1919" points="173.970695 22.8833766 171.055326 18.7574805 172.562021 18.7574805 174.815495 22.0983117 177.044716 18.7574805 178.515032 18.7574805 175.623916 22.8712208 178.809095 27.4519481 177.266021 27.4519481 174.779116 23.6816104 172.280084 27.4519481 170.821895 27.4519481"></polygon>
                    <path d="M185.362762,22.5891039 L186.905836,22.5891039 C187.134215,22.5891039 187.361583,22.5698571 187.58592,22.5333896 C187.810257,22.4969221 188.010341,22.4290519 188.186173,22.3307922 C188.362004,22.2325325 188.502467,22.0917273 188.608573,21.9073636 C188.714678,21.723 188.768236,21.4839351 188.768236,21.1891558 C188.768236,20.8943766 188.714678,20.6542987 188.608573,20.4709481 C188.502467,20.2865844 188.362004,20.1447662 188.186173,20.0475195 C188.010341,19.9492597 187.810257,19.8813896 187.58592,19.8449221 C187.361583,19.8074416 187.134215,19.7892078 186.905836,19.7892078 L185.362762,19.7892078 L185.362762,22.5891039 Z M184.186509,18.757987 L187.236278,18.757987 C187.792067,18.757987 188.248825,18.8329481 188.608573,18.9848961 C188.96832,19.1368442 189.252278,19.3282987 189.460446,19.5622987 C189.668615,19.7952857 189.81312,20.0566364 189.894973,20.3483766 C189.975815,20.6391039 190.017246,20.9186883 190.017246,21.1891558 C190.017246,21.4596234 189.975815,21.7402208 189.894973,22.0299351 C189.81312,22.3206623 189.668615,22.583026 189.460446,22.816013 C189.252278,23.050013 188.96832,23.2424805 188.608573,23.3934156 C188.248825,23.5443506 187.792067,23.6203247 187.236278,23.6203247 L185.362762,23.6203247 L185.362762,27.4514416 L184.186509,27.4514416 L184.186509,18.757987 Z" id="Fill-73" fill="#1A1919"></path>
                    <path d="M196.913785,22.5891039 L198.456859,22.5891039 C198.685238,22.5891039 198.912606,22.5698571 199.136943,22.5333896 C199.36128,22.4969221 199.561364,22.4290519 199.737196,22.3307922 C199.913027,22.2325325 200.053491,22.0917273 200.159596,21.9073636 C200.265701,21.723 200.319259,21.4839351 200.319259,21.1891558 C200.319259,20.8943766 200.265701,20.6542987 200.159596,20.4709481 C200.053491,20.2865844 199.913027,20.1447662 199.737196,20.0475195 C199.561364,19.9492597 199.36128,19.8813896 199.136943,19.8449221 C198.912606,19.8074416 198.685238,19.7892078 198.456859,19.7892078 L196.913785,19.7892078 L196.913785,22.5891039 Z M195.737533,18.757987 L198.788312,18.757987 C199.343091,18.757987 199.800859,18.8329481 200.159596,18.9848961 C200.519343,19.1368442 200.803301,19.3282987 201.011469,19.5622987 C201.219638,19.7952857 201.364143,20.0566364 201.445996,20.3483766 C201.527848,20.6391039 201.568269,20.9186883 201.568269,21.1891558 C201.568269,21.4677273 201.519764,21.7351558 201.421743,21.9934675 C201.323722,22.2517792 201.183259,22.4837532 200.999343,22.6934416 C200.815427,22.9021169 200.591091,23.0783766 200.325322,23.2212078 C200.059554,23.3650519 199.763469,23.4531818 199.437069,23.4855974 L201.899722,27.4514416 L200.429406,27.4514416 L198.224438,23.6203247 L196.913785,23.6203247 L196.913785,27.4514416 L195.737533,27.4514416 L195.737533,18.757987 Z" id="Fill-74" fill="#1A1919"></path>
                    <polygon id="Fill-75" fill="#1A1919" points="207.509962 18.7577844 213.108278 18.7577844 213.108278 19.8629532 208.686215 19.8629532 208.686215 22.453161 212.801078 22.453161 212.801078 23.5593429 208.686215 23.5593429 208.686215 26.3460701 213.328573 26.3460701 213.328573 27.4522519 207.509962 27.4522519"></polygon>
                    <path d="M219.53856,25.6340416 C219.750771,25.9531325 220.022602,26.1891584 220.353044,26.3400935 C220.683486,26.4920416 221.025044,26.5670026 221.375697,26.5670026 C221.571739,26.5670026 221.771823,26.536613 221.97696,26.4758338 C222.180076,26.4140416 222.366013,26.3218597 222.53376,26.1992883 C222.700497,26.0767169 222.837928,25.9247688 222.944034,25.7444571 C223.050139,25.5651584 223.103697,25.3564831 223.103697,25.1184312 C223.103697,24.7831325 222.996581,24.5268468 222.784371,24.350587 C222.57216,24.1753403 222.309423,24.0274442 221.995149,23.9089247 C221.680876,23.7904052 221.337297,23.6759377 220.966434,23.5655221 C220.593549,23.4551065 220.250981,23.3011325 219.936707,23.104613 C219.622434,22.9080935 219.358686,22.6437039 219.146476,22.3124571 C218.934265,21.9812104 218.82816,21.5334701 218.82816,20.9682234 C218.82816,20.7149766 218.883739,20.4445091 218.993886,20.1578338 C219.104034,19.8711584 219.276834,19.6087948 219.514307,19.3717558 C219.750771,19.1337039 220.054939,18.9361714 220.426813,18.7761195 C220.798686,18.6160675 221.245339,18.5370545 221.768792,18.5370545 C222.241718,18.5370545 222.695444,18.6028987 223.127949,18.733574 C223.560455,18.8642494 223.940413,19.1306649 224.266813,19.5318078 L223.311865,20.4029766 C223.164328,20.1740416 222.95616,19.9896779 222.68736,19.8508987 C222.417549,19.7111065 222.11136,19.6412104 221.768792,19.6412104 C221.441381,19.6412104 221.169549,19.6847688 220.953297,19.7708727 C220.737044,19.8569766 220.563234,19.9673922 220.432876,20.1021195 C220.302518,20.2368468 220.21056,20.3827169 220.157002,20.5387169 C220.104455,20.6937039 220.078181,20.8375481 220.078181,20.9682234 C220.078181,21.3359377 220.184286,21.618561 220.396497,21.8150805 C220.608707,22.0116 220.871444,22.1716519 221.185718,22.2942234 C221.499992,22.4167948 221.843571,22.5272104 222.215444,22.6254701 C222.587318,22.7237299 222.929886,22.8614961 223.24416,23.0377558 C223.558434,23.2130026 223.822181,23.4510545 224.034392,23.7498857 C224.246602,24.0487169 224.352707,24.4599896 224.352707,24.9837039 C224.352707,25.4010545 224.273886,25.7778857 224.114223,26.1131844 C223.95456,26.4484831 223.740328,26.7311065 223.470518,26.9610545 C223.201718,27.1899896 222.883402,27.3652364 222.515571,27.4888208 C222.147739,27.6113922 221.755655,27.6721714 221.339318,27.6721714 C220.783528,27.6721714 220.257044,27.5749247 219.758855,27.3784052 C219.260665,27.1808727 218.864539,26.8790026 218.570476,26.4697558 L219.53856,25.6340416 Z" id="Fill-76" fill="#1A1919"></path>
                    <path d="M230.637069,25.6340416 C230.84928,25.9531325 231.121112,26.1891584 231.451554,26.3400935 C231.781996,26.4920416 232.123554,26.5670026 232.474206,26.5670026 C232.670248,26.5670026 232.870333,26.536613 233.074459,26.4758338 C233.278585,26.4140416 233.464522,26.3218597 233.632269,26.1992883 C233.799006,26.0767169 233.936438,25.9247688 234.042543,25.7444571 C234.148648,25.5651584 234.201196,25.3564831 234.201196,25.1184312 C234.201196,24.7831325 234.095091,24.5268468 233.88288,24.350587 C233.670669,24.1753403 233.406922,24.0274442 233.092648,23.9089247 C232.778375,23.7904052 232.435806,23.6759377 232.063933,23.5655221 C231.692059,23.4551065 231.349491,23.3011325 231.035217,23.104613 C230.720943,22.9080935 230.457196,22.6437039 230.244985,22.3124571 C230.032775,21.9812104 229.926669,21.5334701 229.926669,20.9682234 C229.926669,20.7149766 229.982248,20.4445091 230.091385,20.1578338 C230.201533,19.8711584 230.375343,19.6087948 230.612817,19.3717558 C230.84928,19.1337039 231.153448,18.9361714 231.525322,18.7761195 C231.896185,18.6160675 232.343848,18.5370545 232.866291,18.5370545 C233.340227,18.5370545 233.792943,18.6028987 234.226459,18.733574 C234.658964,18.8642494 235.037912,19.1306649 235.365322,19.5318078 L234.409364,20.4029766 C234.262838,20.1740416 234.054669,19.9896779 233.784859,19.8508987 C233.516059,19.7111065 233.208859,19.6412104 232.866291,19.6412104 C232.539891,19.6412104 232.268059,19.6847688 232.051806,19.7708727 C231.835554,19.8569766 231.661743,19.9673922 231.531385,20.1021195 C231.400017,20.2368468 231.309069,20.3827169 231.255512,20.5387169 C231.202964,20.6937039 231.17568,20.8375481 231.17568,20.9682234 C231.17568,21.3359377 231.281785,21.618561 231.495006,21.8150805 C231.707217,22.0116 231.969954,22.1716519 232.284227,22.2942234 C232.598501,22.4167948 232.94208,22.5272104 233.312943,22.6254701 C233.684817,22.7237299 234.027385,22.8614961 234.342669,23.0377558 C234.656943,23.2130026 234.91968,23.4510545 235.132901,23.7498857 C235.345112,24.0487169 235.451217,24.4599896 235.451217,24.9837039 C235.451217,25.4010545 235.371385,25.7778857 235.211722,26.1131844 C235.053069,26.4484831 234.838838,26.7311065 234.569027,26.9610545 C234.300227,27.1899896 233.980901,27.3652364 233.613069,27.4888208 C233.246248,27.6113922 232.854164,27.6721714 232.437827,27.6721714 C231.882038,27.6721714 231.355554,27.5749247 230.857364,27.3784052 C230.359175,27.1808727 229.963048,26.8790026 229.668985,26.4697558 L230.637069,25.6340416 Z" id="Fill-77" fill="#1A1919"></path>
                    <path d="M23.9741305,23.6664156 L26.3721095,18.799013 L28.4325726,22.7841039 C29.9584674,22.5055325 31.4712253,22.2522857 32.9809516,22.0071429 L33.6428463,21.9007792 L33.9783411,25.5667792 L33.6084884,25.7643117 C33.1709305,25.9972987 32.4221305,26.4237662 31.5641937,26.9343117 C34.28352,26.2201558 37.0452884,25.6083117 39.73632,25.1220779 L26.2932884,0 L12.0862989,26.9677403 C16.3143411,25.508026 20.2220463,24.4757922 23.9741305,23.6664156" id="Fill-78" fill="#004D38"></path>
                    <path d="M32.6326232,30.9096779 L36.6312758,38.6438338 L46.9719916,38.6438338 L41.78496,28.950561 C38.6664758,29.4499636 35.5580968,30.1286649 32.6326232,30.9096779" id="Fill-79" fill="#004D38"></path>
                    <path d="M18.2488926,31.8321039 L18.6197558,31.5049091 C19.1987874,30.9994286 20.0779453,30.2994545 21.0773558,29.5457922 L21.62304,28.4385974 C17.7719242,29.4394286 13.6661558,30.6955325 9.18346105,32.4794026 L5.93562947,38.6444416 L16.5946611,38.6444416 L19.1290611,33.4994805 L18.2488926,31.8321039 Z" id="Fill-80" fill="#004D38"></path>
                    <path d="M48.4265432,37.189387 L48.1537011,37.189387 L48.1537011,37.4831532 L48.4265432,37.4831532 C48.5205221,37.4831532 48.5922695,37.4385818 48.5922695,37.3372831 C48.5922695,37.2390234 48.5205221,37.189387 48.4265432,37.189387 M48.5498274,37.6361143 L48.7620379,38.0534649 L48.55488,38.0534649 L48.3537853,37.6543481 L48.1537011,37.6543481 L48.1537011,38.0534649 L47.97888,38.0534649 L47.97888,37.0192052 L48.4315958,37.0192052 C48.6155116,37.0192052 48.7701221,37.1164519 48.7701221,37.3312052 C48.7701221,37.4942961 48.6832168,37.5955948 48.5498274,37.6361143 M48.3376168,36.7588675 C47.8869221,36.7588675 47.5443537,37.1032831 47.5443537,37.5540623 C47.5443537,38.0058545 47.8869221,38.3502701 48.3376168,38.3502701 C48.7883116,38.3502701 49.13088,38.0058545 49.13088,37.5540623 C49.13088,37.1032831 48.7883116,36.7588675 48.3376168,36.7588675 M48.3376168,38.5012052 C47.8010274,38.5012052 47.3927747,38.0929714 47.3927747,37.5540623 C47.3927747,37.0161662 47.8010274,36.6069195 48.3376168,36.6069195 C48.8742063,36.6069195 49.2824589,37.0161662 49.2824589,37.5540623 C49.2824589,38.0929714 48.8742063,38.5012052 48.3376168,38.5012052" id="Fill-81" fill="#004D38"></path>
                    <path d="M51.8834526,24.4726519 C44.4914526,24.5273532 34.9662316,26.3993532 27.3216,28.8001325 C29.2992,27.5511195 32.2256842,25.7824442 33.3190737,25.2070675 L33.0795789,22.6249636 C23.2522105,24.2204182 13.3035789,26.2241065 -1.70530257e-13,32.6818987 L1.27023158,35.3187039 C11.0501053,30.4877688 19.0595368,28.3037688 26.3353263,26.6434831 C23.9636211,28.1224442 20.5045895,30.6923922 19.0342737,31.9758468 L20.4156632,34.5903662 C28.0451368,30.8858727 41.2739368,27.5055351 51.7389474,27.4326 L51.8834526,24.4726519 Z" id="Fill-82" fill="#D02139"></path>
                    <path d="M238.434088,18.3427636 L238.03392,18.3427636 L238.03392,18.7753091 L238.434088,18.7753091 C238.572531,18.7753091 238.676615,18.7094649 238.676615,18.5595429 C238.676615,18.4167117 238.572531,18.3427636 238.434088,18.3427636 M238.614973,18.9991792 L238.926215,19.6120364 L238.623057,19.6120364 L238.326973,19.0255169 L238.03392,19.0255169 L238.03392,19.6120364 L237.776236,19.6120364 L237.776236,18.0925558 L238.442173,18.0925558 C238.710973,18.0925558 238.938341,18.235387 238.938341,18.551439 C238.938341,18.7905039 238.812025,18.940426 238.614973,18.9991792 M238.303731,17.7106597 C237.641836,17.7106597 237.137583,18.2161403 237.137583,18.8786338 C237.137583,19.5431532 237.641836,20.0476208 238.303731,20.0476208 C238.965625,20.0476208 239.468867,19.5431532 239.468867,18.8786338 C239.468867,18.2161403 238.965625,17.7106597 238.303731,17.7106597 M238.303731,20.2714909 C237.514509,20.2714909 236.915267,19.6697766 236.915267,18.8786338 C236.915267,18.0885039 237.514509,17.4878026 238.303731,17.4878026 C239.091941,17.4878026 239.692194,18.0885039 239.692194,18.8786338 C239.692194,19.6697766 239.091941,20.2714909 238.303731,20.2714909" id="Fill-83" fill="#1A1919"></path>
                </g>
            </g>
        </g>
    </g>
</svg>