<svg xmlns="http://www.w3.org/2000/svg" viewBox="0 0 580.48 139.47"><defs><style>.cls-1{fill:#5c595a;}.cls-2{fill:#366299;}.cls-3{fill:#263776;}.cls-4{fill:#508cbd;}</style></defs><title>gdAsset 1</title><g id="Layer_2" data-name="Layer 2"><g id="Layer_1-2" data-name="Layer 1"><polygon class="cls-1" points="13.6 112.01 3.53 112.01 3.53 120.64 13.25 120.64 13.25 123.71 3.53 123.71 3.53 138.16 0.29 138.16 0.29 108.95 13.6 108.95 13.6 112.01"/><rect class="cls-1" x="35.1" y="108.95" width="3.24" height="29.21"/><polygon class="cls-1" points="61.69 138.16 61.69 107.72 84.46 131.59 84.46 108.95 87.7 108.95 87.7 139.47 64.93 115.61 64.93 138.16 61.69 138.16"/><path class="cls-1" d="M125.89,126.86,121,115.17l-5,11.69Zm1.27,3.06H114.72l-3.5,8.24h-3.59l13.44-30.61,13.1,30.61h-3.59Z"/><polygon class="cls-1" points="154.09 138.16 154.09 107.72 176.87 131.59 176.87 108.95 180.11 108.95 180.11 139.47 157.33 115.61 157.33 138.16 154.09 138.16"/><path class="cls-1" d="M225.78,115.38a14.55,14.55,0,0,0-3.8-2.71,12.4,12.4,0,0,0-5-1.14c-6.74,0-11.74,5.43-11.74,12.17a11.69,11.69,0,0,0,11.47,11.91H217a12.08,12.08,0,0,0,5.43-1.35,13.2,13.2,0,0,0,3.38-2.46v4a15.22,15.22,0,0,1-8.81,2.85,14.77,14.77,0,0,1-15.1-14.42q0-.3,0-.6a14.84,14.84,0,0,1,15.28-15.2,13.82,13.82,0,0,1,8.63,2.89Z"/><rect class="cls-1" x="247.55" y="108.95" width="3.24" height="29.21"/><path class="cls-1" d="M289,126.86l-4.91-11.69-5,11.69Zm1.27,3.06H277.81l-3.5,8.24h-3.59l13.45-30.61,13.09,30.61h-3.59Z"/><polygon class="cls-1" points="320.43 108.95 320.43 135.09 328.48 135.09 328.48 138.15 317.19 138.15 317.19 108.95 320.43 108.95"/><path class="cls-1" d="M389.75,123.49h12.18v.7a16.19,16.19,0,0,1-2.8,9.24,13.11,13.11,0,0,1-10.86,5.25,15.11,15.11,0,1,1,.08-30.21,14.47,14.47,0,0,1,8.94,2.89,17.82,17.82,0,0,1,3.37,3.46L398.25,117a15.51,15.51,0,0,0-2.76-3,10.77,10.77,0,0,0-7.1-2.45c-7.05,0-11.95,5.3-11.95,12.09a11.7,11.7,0,0,0,11.42,12h.45a10.16,10.16,0,0,0,8.93-4.91,9.2,9.2,0,0,0,1.18-4.16h-8.67Z"/><path class="cls-1" d="M426.94,122.48H429c4,0,6.43-1.93,6.43-5.34a4.54,4.54,0,0,0-2.32-4.3,8.34,8.34,0,0,0-4.2-.83h-2ZM428.38,109c2,0,4.91.13,7.1,1.62a8.12,8.12,0,0,1-4.16,14.54l9.28,13h-4l-8.88-12.79h-.84v12.79h-3.24V109Z"/><path class="cls-1" d="M463.24,123.57a12,12,0,1,0,0-.07Zm-3.33,0a15.2,15.2,0,1,1,15.28,15.11h-.08a14.91,14.91,0,0,1-15.2-14.62v-.49"/><path class="cls-1" d="M515.31,126.86c0,2.45,0,5.12,2.33,7.09a7.79,7.79,0,0,0,9.63,0c2.32-2,2.32-4.64,2.32-7.09V109h3.24v18.79A10.33,10.33,0,0,1,515.17,136a12.49,12.49,0,0,1-1.26-1.26,11.31,11.31,0,0,1-1.84-7V109h3.24Z"/><path class="cls-1" d="M559.42,122.39h2.67c3.85,0,6.17-1.93,6.17-5.3,0-4.64-4.34-5.08-6.44-5.08h-2.4ZM561.47,109c2.94,0,5.39.35,7.36,2.06a8.12,8.12,0,0,1,2.67,6.26c0,4.11-2.58,8.19-9.24,8.19h-2.85v12.7h-3.24V109Z"/><polygon class="cls-2" points="117.21 91.82 127.72 67.56 106.7 67.56 117.21 91.82"/><polygon class="cls-2" points="140.93 47.78 130.42 65.98 156.67 69.01 156.68 68.99 140.94 47.78 140.93 47.78"/><polygon class="cls-2" points="93.47 44.66 103.99 26.45 77.71 23.42 93.47 44.66"/><polygon class="cls-2" points="156.7 23.41 130.42 26.44 130.42 26.45 140.93 44.66 156.7 23.41"/><polygon class="cls-2" points="106.68 24.9 127.72 24.9 117.2 0.62 106.68 24.9"/><polygon class="cls-2" points="77.73 69 77.73 69.02 103.98 65.99 93.47 47.78 77.73 69"/><path class="cls-3" d="M130.41,66l10.93,18.93c.91-.57,1.81-1.18,2.67-1.8A45.76,45.76,0,0,0,156.67,69l-26.25-3Z"/><path class="cls-3" d="M117.11.7l10.7,24.2,10.79-19A45.55,45.55,0,0,0,117.11.7"/><path class="cls-3" d="M71.62,47.78A45.69,45.69,0,0,0,77.73,69L93.47,47.79H71.62Z"/><path class="cls-3" d="M104,26.45,93.06,7.52A45.67,45.67,0,0,0,77.7,23.42h0Z"/><path class="cls-3" d="M156.69,23.41,140.93,44.66h21.85a45.2,45.2,0,0,0-6.09-21.26"/><path class="cls-3" d="M106.68,67.55,95.75,86.48a45.74,45.74,0,0,0,21.45,5.36h0v0L106.7,67.55Z"/><path class="cls-4" d="M90.39,83.13c.85.62,1.75,1.23,2.67,1.8L104,66h0L77.74,69A45.57,45.57,0,0,0,90.39,83.13"/><path class="cls-4" d="M140.94,47.78,156.68,69a45.79,45.79,0,0,0,6.1-21.21Z"/><path class="cls-4" d="M106.68,24.9,117.2.62A45.61,45.61,0,0,0,95.75,6Z"/><path class="cls-4" d="M93.47,44.66,77.71,23.42h0a45.27,45.27,0,0,0-6.08,21.25H93.47Z"/><path class="cls-4" d="M141.34,7.52,130.42,26.44l26.27-3A45.7,45.7,0,0,0,141.34,7.52"/><path class="cls-4" d="M117.21,91.82h0a45.54,45.54,0,0,0,21.44-5.35L127.72,67.55Z"/><path class="cls-3" d="M569.11,51.45q-4.68-6.08-17.31-12.1A115.67,115.67,0,0,1,539.7,33,12.87,12.87,0,0,1,536,29.41,8.15,8.15,0,0,1,534.81,25a8.29,8.29,0,0,1,2.89-6.58q2.89-2.54,8.31-2.53a38.6,38.6,0,0,1,9.27,1.17,89.68,89.68,0,0,1,11.91,4.13l6.16-14.85A92.4,92.4,0,0,0,560,1.66,53,53,0,0,0,546.63,0q-14.28,0-22.38,6.83t-8.1,18.78a23.64,23.64,0,0,0,2.47,11.08A27.82,27.82,0,0,0,525.2,45a55.13,55.13,0,0,0,12.38,7.46,112.42,112.42,0,0,1,11.67,6.09,16.58,16.58,0,0,1,4.34,4,7.86,7.86,0,0,1,1.47,4.71,8.2,8.2,0,0,1-3.35,7.14q-3.36,2.4-9.63,2.4a45.07,45.07,0,0,1-11.55-1.66,104.55,104.55,0,0,1-15.42-5.72V87.12q11.08,5.41,25.49,5.42,15.63,0,24.41-7t8.78-19.2a23.64,23.64,0,0,0-4.68-14.86"/><path class="cls-3" d="M313,56.28q0,10.45-4.22,15.36t-13.57,4.89q-9.67,0-13.86-4.86T277.21,56.4V1.29h-19v58q0,15.45,9.61,24.35t27,8.9q11.52,0,19.95-4A29,29,0,0,0,327.6,77a33.49,33.49,0,0,0,4.46-17.49V1.29H313Z"/><path class="cls-3" d="M479.59,56.28q0,10.45-4.22,15.36t-13.58,4.89q-9.66,0-13.85-4.86T443.75,56.4V1.29h-19v58q0,15.45,9.6,24.35t27,8.9q11.51,0,19.95-4A29.07,29.07,0,0,0,494.15,77a33.59,33.59,0,0,0,4.46-17.49V1.29h-19Z"/><polygon class="cls-3" points="373.19 1.3 354.1 1.3 354.1 91.31 409.7 91.31 409.7 75.54 373.19 75.54 373.19 1.3"/><path class="cls-3" d="M217.93,40.17q-4.37,3.48-13.17,3.48h-6.28V16.93h8.68q7.82,0,11.48,3.2t3.67,9.92q0,6.64-4.38,10.12M233.05,8.34q-8.52-7-24.91-7H179.39v90h19.09v-32h8.18q16.76,0,25.83-7.69t9.08-22.23q0-14-8.52-21"/><path class="cls-3" d="M38.54,40.17q-4.36,3.48-13.17,3.48H19.09V16.93h8.68q7.81,0,11.48,3.2t3.67,9.92q0,6.64-4.38,10.12M53.66,8.34q-8.52-7-24.91-7H0v90H19.09v-32h8.18Q44,59.29,53.1,51.6t9.09-22.23q0-14-8.53-21"/><path class="cls-1" d="M574.15,109.44H572.9V109h3v.49h-1.25v3.38h-.52Z"/><path class="cls-1" d="M576.44,109h.78l1.23,2.93h0l1.22-2.93h.79v3.87H580v-3.18h0l-1.31,3.18h-.35l-1.3-3.18h0v3.18h-.53Z"/></g></g></svg>